<?xml version="1.0" standalone="no"?>
<!DOCTYPE svg PUBLIC "-//W3C//DTD SVG 20010904//EN"
 "http://www.w3.org/TR/2001/REC-SVG-20010904/DTD/svg10.dtd">
<svg version="1.0" xmlns="http://www.w3.org/2000/svg"
 width="417.000000pt" height="417.000000pt" viewBox="0 0 417.000000 417.000000"
 preserveAspectRatio="xMidYMid meet">
<metadata>
Created by potrace 1.14, written by Peter Selinger 2001-2017
</metadata>
<g transform="translate(0.000000,417.000000) scale(0.100000,-0.100000)"
fill="#000000" stroke="none">
<path d="M492 3728 c-78 -13 -128 -52 -158 -123 -13 -31 -17 -72 -17 -175 0
-120 8 -300 18 -370 1 -14 6 -50 10 -80 5 -48 13 -98 32 -215 31 -193 136
-559 207 -718 l24 -55 43 9 c24 5 138 27 254 50 116 22 275 56 355 76 80 19
153 36 163 38 68 14 418 119 602 180 592 196 1161 452 1697 761 76 45 76 45
80 92 2 26 4 124 4 217 -1 185 -5 201 -62 258 -63 63 51 59 -1656 61 -856 0
-1574 -2 -1596 -6z m3066 -337 l-3 -93 -45 -25 c-539 -304 -1109 -551 -1700
-736 -245 -77 -294 -91 -475 -136 -300 -75 -544 -126 -565 -119 -17 5 -94 256
-124 403 -34 161 -62 354 -72 502 -8 109 -12 275 -7 288 2 7 511 10 1498 10
l1496 0 -3 -94z"/>
<path d="M3685 2857 c-53 -36 -477 -253 -630 -322 -421 -191 -970 -398 -1245
-470 -8 -2 -89 -25 -180 -50 -211 -60 -522 -133 -695 -165 -27 -5 -63 -12 -80
-15 -16 -3 -60 -11 -97 -17 l-67 -11 15 -36 c30 -72 139 -259 239 -412 l71
-108 189 64 c441 147 838 328 1260 575 132 77 315 198 475 314 109 79 355 270
386 300 6 6 39 36 74 66 136 119 325 300 312 300 -4 0 -16 -6 -27 -13z"/>
<path d="M3639 2517 c-104 -97 -134 -123 -254 -222 -640 -526 -1373 -929
-2160 -1186 -38 -13 -72 -24 -74 -26 -7 -4 85 -113 202 -237 178 -191 485
-449 612 -516 45 -24 65 -28 108 -26 60 4 74 11 182 88 169 119 415 340 579
519 169 184 352 440 498 694 48 84 163 327 207 438 75 187 166 481 159 512 -2
9 -23 -5 -59 -38z m-515 -773 c-15 -27 -32 -59 -38 -71 -6 -13 -14 -23 -18
-23 -5 0 -8 -5 -8 -12 0 -19 -181 -283 -277 -403 -168 -211 -481 -507 -690
-654 l-33 -22 -102 77 c-57 43 -105 80 -108 83 -3 3 -39 35 -80 71 -41 36
-101 90 -133 121 l-58 57 128 50 c307 121 587 258 944 459 67 39 224 137 318
200 51 35 97 63 102 63 4 0 9 3 11 8 4 9 62 51 66 47 1 -1 -9 -24 -24 -51z"/>
</g>
</svg>
